<svg width="322" height="126" viewBox="0 0 322 126" fill="none" xmlns="http://www.w3.org/2000/svg">
<path d="M44.9354 92.336V94.016C47.1754 92.032 49.6714 91.04 52.4234 91.04H54.7274C55.0794 91.04 55.3834 91.168 55.6394 91.424C55.8954 91.68 56.0234 91.984 56.0234 92.336V99.824C56.0234 100.176 55.8954 100.48 55.6394 100.736C55.3834 100.992 55.0794 101.12 54.7274 101.12H48.5354C47.6714 101.12 46.9834 101.328 46.4714 101.744C45.9914 102.128 45.7194 102.656 45.6554 103.328V114.704C45.6554 115.056 45.5274 115.36 45.2714 115.616C45.0154 115.872 44.7114 116 44.3594 116H35.2394C34.8874 116 34.5834 115.872 34.3274 115.616C34.0714 115.36 33.9434 115.056 33.9434 114.704V92.336C33.9434 91.984 34.0714 91.68 34.3274 91.424C34.5834 91.168 34.8874 91.04 35.2394 91.04H43.6394C43.9914 91.04 44.2954 91.168 44.5514 91.424C44.8074 91.68 44.9354 91.984 44.9354 92.336ZM59.1566 105.152V101.888C59.1566 98.24 60.4526 95.44 63.0446 93.488C65.6366 91.536 68.9806 90.56 73.0766 90.56C77.1726 90.56 80.5166 91.536 83.1086 93.488C85.7006 95.44 86.9966 98.24 86.9966 101.888V105.152C86.9966 108.832 85.7486 111.648 83.2526 113.6C80.7566 115.52 77.3646 116.48 73.0766 116.48C68.7886 116.48 65.3966 115.52 62.9006 113.6C60.4046 111.648 59.1566 108.832 59.1566 105.152ZM75.2366 105.536V101.504C75.2366 100.288 75.0766 99.44 74.7566 98.96C74.4366 98.48 73.8766 98.24 73.0766 98.24C72.2766 98.24 71.7166 98.48 71.3966 98.96C71.0766 99.44 70.9166 100.288 70.9166 101.504V105.536C70.9166 106.816 71.0766 107.68 71.3966 108.128C71.7166 108.576 72.2766 108.8 73.0766 108.8C73.8766 108.8 74.4366 108.56 74.7566 108.08C75.0766 107.6 75.2366 106.752 75.2366 105.536ZM90.8553 105.584V92.336C90.8553 91.984 90.9833 91.68 91.2393 91.424C91.4953 91.168 91.7993 91.04 92.1513 91.04H101.319C101.671 91.04 101.975 91.168 102.231 91.424C102.487 91.68 102.615 91.984 102.615 92.336V105.248C102.615 107.008 103.415 107.888 105.015 107.888C106.615 107.888 107.415 107.008 107.415 105.248V92.336C107.415 91.984 107.543 91.68 107.799 91.424C108.055 91.168 108.359 91.04 108.711 91.04H117.831C118.183 91.04 118.487 91.168 118.743 91.424C118.999 91.68 119.127 91.984 119.127 92.336V114.704C119.127 115.056 118.999 115.36 118.743 115.616C118.487 115.872 118.183 116 117.831 116H109.431C109.079 116 108.775 115.872 108.519 115.616C108.263 115.36 108.135 115.056 108.135 114.704V113.12C106.631 115.36 103.975 116.48 100.167 116.48C97.5433 116.48 95.3353 115.568 93.5433 113.744C91.7513 111.888 90.8553 109.168 90.8553 105.584ZM138.308 99.44V104.72C138.308 106.32 138.996 107.12 140.372 107.12H144.74C145.092 107.12 145.396 107.248 145.652 107.504C145.908 107.76 146.036 108.064 146.036 108.416V114.704C146.036 115.056 145.908 115.36 145.652 115.616C145.396 115.872 145.092 116 144.74 116H139.316C131.316 116 127.316 112.56 127.316 105.68V99.44H123.524C123.172 99.44 122.868 99.312 122.612 99.056C122.356 98.8 122.228 98.496 122.228 98.144V92.336C122.228 91.984 122.356 91.68 122.612 91.424C122.868 91.168 123.172 91.04 123.524 91.04H127.316V83.216C127.316 82.864 127.444 82.56 127.7 82.304C127.956 82.048 128.26 81.92 128.612 81.92H137.012C137.364 81.92 137.668 82.048 137.924 82.304C138.18 82.56 138.308 82.864 138.308 83.216V91.04H144.356C144.708 91.04 145.012 91.168 145.268 91.424C145.524 91.68 145.652 91.984 145.652 92.336V98.144C145.652 98.496 145.524 98.8 145.268 99.056C145.012 99.312 144.708 99.44 144.356 99.44H138.308ZM159.296 116H150.704C150.352 116 150.048 115.872 149.792 115.616C149.536 115.36 149.408 115.056 149.408 114.704V92.336C149.408 91.984 149.536 91.68 149.792 91.424C150.048 91.168 150.352 91.04 150.704 91.04H159.296C159.648 91.04 159.952 91.168 160.208 91.424C160.464 91.68 160.592 91.984 160.592 92.336V114.704C160.592 115.056 160.464 115.36 160.208 115.616C159.952 115.872 159.648 116 159.296 116ZM160.352 81.776V87.584C160.352 87.936 160.224 88.24 159.968 88.496C159.712 88.752 159.408 88.88 159.056 88.88H150.944C150.592 88.88 150.288 88.752 150.032 88.496C149.776 88.24 149.648 87.936 149.648 87.584V81.776C149.648 81.424 149.776 81.12 150.032 80.864C150.288 80.608 150.592 80.48 150.944 80.48H159.056C159.408 80.48 159.712 80.608 159.968 80.864C160.224 81.12 160.352 81.424 160.352 81.776ZM193.664 101.456V114.704C193.664 115.056 193.536 115.36 193.28 115.616C193.024 115.872 192.72 116 192.368 116H183.2C182.848 116 182.544 115.872 182.288 115.616C182.032 115.36 181.904 115.056 181.904 114.704V101.792C181.904 100.032 181.104 99.152 179.504 99.152C177.904 99.152 177.104 100.032 177.104 101.792V114.704C177.104 115.056 176.976 115.36 176.72 115.616C176.464 115.872 176.16 116 175.808 116H166.688C166.336 116 166.032 115.872 165.776 115.616C165.52 115.36 165.392 115.056 165.392 114.704V92.336C165.392 91.984 165.52 91.68 165.776 91.424C166.032 91.168 166.336 91.04 166.688 91.04H175.088C175.44 91.04 175.744 91.168 176 91.424C176.256 91.68 176.384 91.984 176.384 92.336V93.92C177.216 92.928 178.336 92.128 179.744 91.52C181.184 90.88 182.72 90.56 184.352 90.56C186.976 90.56 189.184 91.488 190.976 93.344C192.768 95.168 193.664 97.872 193.664 101.456ZM223.549 106.352H209.245V106.592C209.245 108.544 209.869 109.52 211.117 109.52C211.469 109.52 211.901 109.264 212.413 108.752C212.925 108.24 213.485 107.984 214.093 107.984H223.165C223.869 107.984 224.221 108.336 224.221 109.04C224.221 110.608 223.037 112.24 220.669 113.936C218.333 115.632 215.149 116.48 211.117 116.48C207.117 116.48 203.837 115.44 201.277 113.36C198.749 111.248 197.485 108.352 197.485 104.672V102.368C197.485 98.88 198.781 96.048 201.373 93.872C203.965 91.664 207.357 90.56 211.549 90.56C215.773 90.56 219.037 91.792 221.341 94.256C223.677 96.72 224.845 99.84 224.845 103.616V105.056C224.845 105.408 224.717 105.712 224.461 105.968C224.205 106.224 223.901 106.352 223.549 106.352ZM213.085 100.16C213.085 98.24 212.445 97.28 211.165 97.28C209.885 97.28 209.245 98.24 209.245 100.16V100.352H213.085V100.16ZM230.684 105.056H239.036C239.388 105.056 239.692 105.184 239.948 105.44C240.204 105.696 240.332 106 240.332 106.352V114.704C240.332 115.056 240.204 115.36 239.948 115.616C239.692 115.872 239.388 116 239.036 116H230.684C230.332 116 230.028 115.872 229.772 115.616C229.516 115.36 229.388 115.056 229.388 114.704V106.352C229.388 106 229.516 105.696 229.772 105.44C230.028 105.184 230.332 105.056 230.684 105.056ZM255.483 116H246.891C246.539 116 246.235 115.872 245.979 115.616C245.723 115.36 245.595 115.056 245.595 114.704V83.216C245.595 82.864 245.723 82.56 245.979 82.304C246.235 82.048 246.539 81.92 246.891 81.92H255.483C255.835 81.92 256.139 82.048 256.395 82.304C256.651 82.56 256.779 82.864 256.779 83.216V114.704C256.779 115.056 256.651 115.36 256.395 115.616C256.139 115.872 255.835 116 255.483 116ZM261.1 91.04H269.212C269.948 91.04 270.46 91.424 270.748 92.192L274.684 103.136L278.764 92.192C279.084 91.424 279.628 91.04 280.396 91.04H288.412C288.7 91.04 288.956 91.152 289.18 91.376C289.404 91.568 289.516 91.776 289.516 92C289.516 92.224 289.5 92.4 289.468 92.528L275.932 123.968C275.612 124.736 275.052 125.12 274.252 125.12H266.38C266.092 125.12 265.836 125.024 265.612 124.832C265.42 124.64 265.324 124.4 265.324 124.112C265.324 123.856 265.34 123.696 265.372 123.632L269.212 114.416L259.948 92.528C259.916 92.432 259.9 92.32 259.9 92.192C260.028 91.424 260.428 91.04 261.1 91.04Z" fill="#5BD18A"/>
<path d="M124.397 17.1869C128.595 9.67402 139.405 9.67401 143.603 17.1869L163.827 53.3847C167.924 60.7169 162.624 69.75 154.225 69.75H113.775C105.376 69.75 100.076 60.7169 104.173 53.3847L124.397 17.1869Z" fill="#5BD18A"/>
<path d="M124.397 17.1869C128.595 9.67402 139.405 9.67401 143.603 17.1869L163.827 53.3847C167.924 60.7169 162.624 69.75 154.225 69.75H113.775C105.376 69.75 100.076 60.7169 104.173 53.3847L124.397 17.1869Z" fill="#5BD18A"/>
<path d="M156.397 17.1869C160.595 9.67402 171.405 9.67401 175.603 17.1869L195.827 53.3847C199.924 60.7169 194.624 69.75 186.225 69.75H145.775C137.376 69.75 132.076 60.7169 136.173 53.3847L156.397 17.1869Z" fill="#63FFA1"/>
</svg>
